#!OML:ASF H:\Terrain\Patient Classification 1\Walking\liu\liu.ASF
:FULLY-SPECIFIED
:DEGREES
303
root -1.649 15.4491 -36.3272 20.7224 70.0246 15.0291
lowerback 15.6176 -3.63045 -6.80604
upperback -1.59561 -5.80742 3.17371
thorax -9.4983 -2.32252 8.67403
lowerneck -7.02363 4.90826 1.51276
upperneck 2.5566 6.71435 -5.84005
head 2.3108 3.21197 -1.84964
rclavicle 7.73272e-014 -3.18055e-015
rhumerus -59.5149 1.94568 -84.6848
rradius 94.7274
rwrist -82.936
rhand -14.2894 -45.6282
rfingers 7.12502
rthumb 11.8501 -75.2729
lclavicle 7.73272e-014 -3.18055e-015
lhumerus 15.2101 -6.2828 66.8176
lradius 23.8826
lwrist -48.546
lhand -23.5731 43.8254
lfingers 7.12502
lthumb 2.88961 73.7855
rfemur -34.176 -8.67796 8.65744
rtibia 93.2711
rfoot 7.05721 -9.54292
rtoes 3.57423
lfemur -27.7284 13.5007 -23.0241
ltibia 59.6736
lfoot -23.0601 26.5429
ltoes -7.73616
304
root -1.54949 15.4327 -36.278 23.739 70.4667 18.4068
lowerback 15.9033 -3.26491 -8.26343
upperback -1.53737 -5.66489 2.7614
thorax -9.53619 -2.18657 9.04497
lowerneck -7.12974 4.4785 1.29701
upperneck 2.79665 6.14276 -5.36372
head 2.35739 2.93095 -1.68017
rclavicle 2.84262e-014 2.38542e-014
rhumerus -59.7929 2.73975 -85.3807
rradius 94.8814
rwrist -81.1492
rhand -15.1984 -42.646
rfingers 7.12502
rthumb 10.9734 -72.3392
lclavicle 2.84262e-014 2.38542e-014
lhumerus 16.2399 -8.52026 67.0507
lradius 25.4169
lwrist -47.2577
lhand -22.319 38.362
lfingers 7.12502
lthumb 4.10074 68.3023
rfemur -37.0695 -7.5122 8.16276
rtibia 95.9124
rfoot 4.59582 -7.08514
rtoes 1.82954
lfemur -26.8595 13.1899 -23.8218
ltibia 59.1237
lfoot -23.1932 26.278
ltoes -8.28411
305
root -1.42978 15.4324 -36.2374 26.2699 70.5993 21.354
lowerback 16.1597 -2.75847 -9.46928
upperback -1.43742 -5.28739 2.33967
thorax -9.59246 -1.95028 9.20655
lowerneck -7.19621 3.99755 1.00011
upperneck 2.91135 5.50694 -4.92089
head 2.35606 2.6198 -1.51228
rclavicle 4.90998e-014 -1.03368e-014
rhumerus -60.3281 4.41046 -86.9314
rradius 95.8994
rwrist -74.9123
rhand -9.97468 -41.3112
rfingers 7.12502
rthumb 16.008 -70.6698
lclavicle 4.90998e-014 -1.03368e-014
lhumerus 17.5097 -11.7288 67.0394
lradius 26.9498
lwrist -44.9819
lhand -20.7349 33.628
lfingers 7.12502
lthumb 5.6303 63.5332
rfemur -40.0327 -6.28193 7.79069
rtibia 98.0389
rfoot 3.3086 -6.7306
rtoes 4.51734
lfemur -25.7065 13.1497 -24.5549
ltibia 58.4409
lfoot -23.0441 26.4117
ltoes -9.3769
306
root -1.30244 15.4192 -36.2103 27.5506 70.7618 23.0961
lowerback 16.5003 -2.18824 -10.0435
upperback -1.34427 -4.71112 1.93464
thorax -9.80514 -1.63957 8.98798
lowerneck -7.13672 3.47695 0.920646
upperneck 2.97766 4.80794 -4.69713
head 2.33411 2.27651 -1.4586
rclavicle -3.45885e-014 -7.95139e-016
rhumerus -61.0739 6.39287 -89.1735
rradius 97.5763
rwrist -66.5616
rhand -5.30554 -35.5383
rfingers 7.12502
rthumb 20.4998 -64.476
lclavicle -3.45885e-014 -7.95139e-016
lhumerus 18.8272 -15.6718 66.7643
lradius 28.5828
lwrist -42.1477
lhand -20.4715 29.5167
lfingers 7.12502
lthumb 5.88459 59.415
rfemur -42.7029 -5.45058 8.00805
rtibia 99.6202
rfoot 2.6681 -7.9015
rtoes 3.10876
lfemur -24.4634 13.0337 -24.876
ltibia 57.8516
lfoot -23.0414 26.6262
ltoes -10.0224
307
root -1.16394 15.4083 -36.1978 28.7552 70.7487 24.8541
lowerback 16.8407 -1.66903 -10.5655
upperback -1.21366 -4.18645 1.60323
thorax -9.96337 -1.36042 8.82257
lowerneck -7.01516 3.0726 0.630953
upperneck 2.93353 4.28129 -4.49596
head 2.26605 2.01873 -1.36775
rclavicle -3.55825e-014 1.43125e-014
rhumerus -61.579 9.01792 -91.4038
rradius 99.768
rwrist -59.0868
rhand -3.70011 -27.1622
rfingers 7.12502
rthumb 22.0419 -55.926
lclavicle -3.55825e-014 1.43125e-014
lhumerus 20.0061 -19.203 66.5115
lradius 30.1479
lwrist -39.2049
lhand -21.0625 27.146
lfingers 7.12502
lthumb 5.31405 57.0593
rfemur -45.4109 -4.78421 8.19675
rtibia 100.797
rfoot 1.87815 -10.2446
rtoes 4.25199
lfemur -23.0341 12.7757 -25.3438
ltibia 57.2415
lfoot -23.5743 26.7889
ltoes -9.4079
308
root -1.01821 15.3922 -36.1866 28.9531 70.8167 25.9038
lowerback 17.4245 -1.20823 -10.8434
upperback -1.00099 -3.70557 1.36184
thorax -10.1664 -1.1124 8.63466
lowerneck -6.81881 2.77332 0.253512
upperneck 2.88687 3.89805 -4.22765
head 2.18604 1.83389 -1.2339
rclavicle 1.86858e-014 -4.05521e-014
rhumerus -61.5632 11.7713 -93.1373
rradius 102.215
rwrist -54.6852
rhand 0.548419 -20.979
rfingers 7.12502
rthumb 26.1156 -49.2032
lclavicle 1.86858e-014 -4.05521e-014
lhumerus 21.0414 -22.6222 66.23
lradius 31.6491
lwrist -36.2614
lhand -22.7114 27.2379
lfingers 7.12502
lthumb 3.72181 57.1852
rfemur -47.5593 -4.23767 8.75852
rtibia 101.325
rfoot 0.0964807 -12.3246
rtoes 3.93371
lfemur -21.2068 12.5048 -25.48
ltibia 56.6857
lfoot -23.9745 27.1486
ltoes -8.94811
309
root -0.871526 15.3772 -36.1717 29.1304 71.0279 27.1509
lowerback 18.1589 -0.700861 -11.1603
upperback -0.71245 -3.18563 1.13369
thorax -10.3731 -0.846022 8.47119
lowerneck -6.58612 2.42676 -0.0720245
upperneck 2.87965 3.44037 -3.84381
head 2.11243 1.61478 -1.07513
rclavicle 7.13637e-014 1.19271e-014
rhumerus -61.1001 14.762 -94.7098
rradius 105.101
rwrist -55.4721
rhand 2.99123 -14.5991
rfingers 7.12502
rthumb 28.4522 -42.4557
lclavicle 7.13637e-014 1.19271e-014
lhumerus 22.1654 -25.9016 66.0457
lradius 33.0369
lwrist -34.1785
lhand -23.9523 28.1299
lfingers 7.12502
lthumb 2.52346 58.0947
rfemur -49.3788 -3.74466 9.29468
rtibia 101.251
rfoot -2.15798 -13.8355
rtoes 5.55314
lfemur -19.1597 12.0251 -25.5722
ltibia 56.1011
lfoot -24.2399 27.631
ltoes -8.68099
310
root -0.721835 15.3617 -36.1538 28.9953 71.4231 28.3115
lowerback 19.1104 -0.217413 -11.4631
upperback -0.333249 -2.70799 1.00557
thorax -10.5823 -0.600542 8.42082
lowerneck -6.52859 2.08233 -0.289046
upperneck 3.02378 2.98419 -3.48775
head 2.12763 1.39236 -0.942162
rclavicle 2.3556e-014 7.15625e-015
rhumerus -60.2519 18.1877 -96.3156
rradius 108.005
rwrist -57.2304
rhand 3.50003 -6.36156
rfingers 7.12502
rthumb 28.9383 -34.1359
lclavicle 2.3556e-014 7.15625e-015
lhumerus 23.2843 -28.833 65.994
lradius 34.2888
lwrist -32.8297
lhand -25.5996 27.5272
lfingers 7.12502
lthumb 0.932424 57.5049
rfemur -50.6524 -3.55393 10.0259
rtibia 100.483
rfoot -3.93424 -14.3688
rtoes 4.18679
lfemur -16.8675 11.4675 -25.5057
ltibia 55.5265
lfoot -24.1828 28.2833
ltoes -9.27098
311
root -0.568613 15.3463 -36.126 28.8257 72.0455 29.3448
lowerback 20.5175 0.214431 -11.2908
upperback -0.354421 -2.30051 0.749717
thorax -11.5146 -0.352814 7.9917
lowerneck -6.27414 1.65809 -0.534648
upperneck 3.50828 2.41151 -2.81345
head 2.21466 1.11666 -0.708694
rclavicle 1.67973e-014 4.21423e-014
rhumerus -58.1672 20.4066 -95.5604
rradius 112.675
rwrist -56.0741
rhand 11.6068 -17.4007
rfingers 7.12502
rthumb 36.6487 -43.5552
lclavicle 1.67973e-014 4.21423e-014
lhumerus 23.8846 -32.1943 66.1246
lradius 35.5228
lwrist -31.5514
lhand -26.2762 28.948
lfingers 7.12502
lthumb 0.278968 58.9275
rfemur -51.7356 -3.5276 10.9414
rtibia 99.0607
rfoot -5.4916 -13.9311
rtoes 2.35849
lfemur -14.6625 10.8706 -25.2154
ltibia 54.9809
lfoot -24.9039 28.229
ltoes -8.19011
312
root -0.411002 15.3321 -36.0888 29.0759 72.8709 30.5755
lowerback 21.3139 0.499822 -11.4366
upperback -0.151326 -2.04203 0.719588
thorax -11.7828 -0.208258 7.99628
lowerneck -6.23068 1.33849 -0.641323
upperneck 3.73476 1.97645 -2.42048
head 2.2689 0.906559 -0.582246
rclavicle 5.24792e-014 -3.73715e-014
rhumerus -55.3381 23.7255 -95.3009
rradius 116.665
rwrist -57.2287
rhand 12.4235 -19.3189
rfingers 7.12502
rthumb 37.4212 -45.2733
lclavicle 5.24792e-014 -3.73715e-014
lhumerus 24.704 -34.7359 66.4285
lradius 36.4747
lwrist -30.7442
lhand -22.6145 37.9597
lfingers 7.12502
lthumb 3.81537 67.9052
rfemur -52.7919 -3.71903 11.7935
rtibia 97.0272
rfoot -6.67374 -12.4127
rtoes -0.136328
lfemur -12.7665 10.1489 -24.9286
ltibia 54.4764
lfoot -24.9777 28.589
ltoes -8.19004
313
root -0.246683 15.3228 -36.0414 30.0996 74.0518 32.5001
lowerback 21.9761 0.742534 -11.8616
upperback 0.0495863 -1.8644 0.964405
thorax -11.9406 -0.0825177 8.49562
lowerneck -6.18987 0.977444 -1.10838
upperneck 3.91031 1.51016 -1.93569
head 2.30498 0.67943 -0.366012
rclavicle 2.01766e-014 -2.78299e-014
rhumerus -51.5159 26.9355 -93.6903
rradius 120.37
rwrist -57.1338
rhand 14.0058 -20.2448
rfingers 7.12502
rthumb 38.915 -45.7891
lclavicle 2.01766e-014 -2.78299e-014
lhumerus 25.3918 -37.1881 67.1453
lradius 37.4709
lwrist -29.5934
lhand -26.495 31.5005
lfingers 7.12502
lthumb 0.0676285 61.4803
rfemur -53.5343 -4.31155 12.5951
rtibia 94.4155
rfoot -7.65852 -10.5698
rtoes -2.22387
lfemur -11.0035 9.16037 -24.5772
ltibia 53.9975
lfoot -25.1941 28.7791
ltoes -8.09012
314
root -0.0746233 15.3148 -35.9901 32.1768 75.3223 35.126
lowerback 22.3859 0.800883 -12.0213
upperback 0.0447938 -1.87253 1.0347
thorax -12.1682 -0.0539755 8.69098
lowerneck -5.97677 0.626301 -1.35873
upperneck 4.06685 1.03209 -1.4328
head 2.31022 0.451177 -0.182373
rclavicle -5.40694e-014 -5.56597e-015
rhumerus -47.064 29.9823 -91.8175
rradius 123.405
rwrist -55.6085
rhand 16.6886 -19.4543
rfingers 7.12502
rthumb 41.4387 -44.2296
lclavicle -5.40694e-014 -5.56597e-015
lhumerus 25.7357 -39.574 68.0146
lradius 38.2288
lwrist -28.2481
lhand -25.7785 33.0367
lfingers 7.12502
lthumb 0.759699 63.0151
rfemur -54.3804 -5.20699 13.2209
rtibia 91.3081
rfoot -8.10802 -8.12631
rtoes -5.61473
lfemur -9.64572 8.1092 -24.2984
ltibia 53.5339
lfoot -25.6475 28.6703
ltoes -7.46741
315
root 0.104905 15.3096 -35.9358 35.3228 76.6863 38.6732
lowerback 22.5426 0.772672 -12.1852
upperback 0.0222929 -1.96319 1.12336
thorax -12.2533 -0.0733855 8.92599
lowerneck -5.72363 0.268775 -1.5708
upperneck 4.19261 0.542168 -0.97062
head 2.30292 0.216805 -0.0183309
rclavicle -2.127e-014 1.27222e-014
rhumerus -41.4074 32.56 -88.7539
rradius 125.704
rwrist -52.323
rhand 22.2444 -17.7697
rfingers 7.12502
rthumb 46.6199 -40.6016
lclavicle -2.127e-014 1.27222e-014
lhumerus 25.8959 -41.9083 69.0724
lradius 38.8668
lwrist -26.5067
lhand -24.9742 34.5862
lfingers 7.12502
lthumb 1.53645 64.5604
rfemur -54.9685 -6.09302 13.5571
rtibia 87.6823
rfoot -8.66884 -5.42881
rtoes -6.85461
lfemur -8.4681 7.09961 -24.0145
ltibia 53.0858
lfoot -25.5643 28.8837
ltoes -7.94917
